<svg xmlns="http://www.w3.org/2000/svg" version="1.1" xmlns:xlink="http://www.w3.org/1999/xlink" viewBox="0 0 200 200"><rect width="200" height="200" fill="url('#gradient')"></rect><defs><linearGradient id="gradient" gradientTransform="rotate(45 0.5 0.5)"><stop offset="0%" stop-color="#000000"></stop><stop offset="100%" stop-color="#000000"></stop></linearGradient></defs><g><g fill="#00baff" transform="matrix(1.8490335707019327,0,0,1.8490335707019327,27.015987374338714,109.92127504028599)" stroke="#90a9ab" stroke-width="0.5"><path d="M6.69-4.82L4.50-4.82L4.50 0L1.07 0L1.07-14.22L6.75-14.22Q8.38-14.22 9.63-13.62Q10.89-13.02 11.58-11.91Q12.27-10.80 12.27-9.39L12.27-9.39Q12.27-7.31 10.78-6.07Q9.29-4.82 6.69-4.82L6.69-4.82ZM4.50-11.57L4.50-7.47L6.75-7.47Q7.74-7.47 8.27-7.97Q8.79-8.47 8.79-9.38L8.79-9.38Q8.79-10.37 8.25-10.97Q7.71-11.56 6.79-11.57L6.79-11.57L4.50-11.57ZM17.41-15L17.41 0L14.11 0L14.11-15L17.41-15ZM28.68 0L25.39 0Q25.21-0.32 25.08-0.95L25.08-0.95Q24.17 0.20 22.54 0.20L22.54 0.20Q21.04 0.20 20-0.71Q18.96-1.61 18.96-2.98L18.96-2.98Q18.96-4.70 20.22-5.58Q21.49-6.46 23.92-6.46L23.92-6.46L24.93-6.46L24.93-7.01Q24.93-8.47 23.67-8.47L23.67-8.47Q22.50-8.47 22.50-7.31L22.50-7.31L19.21-7.31Q19.21-8.85 20.51-9.80Q21.82-10.76 23.84-10.76Q25.86-10.76 27.03-9.78Q28.20-8.79 28.23-7.07L28.23-7.07L28.23-2.39Q28.25-0.94 28.68-0.17L28.68-0.17L28.68 0ZM23.33-2.15L23.33-2.15Q23.95-2.15 24.35-2.41Q24.76-2.68 24.93-3.01L24.93-3.01L24.93-4.70L23.97-4.70Q22.26-4.70 22.26-3.15L22.26-3.15Q22.26-2.71 22.56-2.43Q22.86-2.15 23.33-2.15ZM32.46-10.57L34.13-4.61L35.89-10.57L39.41-10.57L35.11 1.77L34.92 2.22Q34.00 4.27 31.68 4.27L31.68 4.27Q31.04 4.27 30.32 4.07L30.32 4.07L30.32 1.72L30.75 1.72Q31.45 1.72 31.81 1.52Q32.18 1.32 32.35 0.80L32.35 0.80L32.62 0.10L28.95-10.57L32.46-10.57ZM40.81-13.19L44.10-13.19L44.10-10.57L45.84-10.57L45.84-8.28L44.10-8.28L44.10-3.45Q44.10-2.85 44.32-2.62Q44.53-2.38 45.17-2.38L45.17-2.38Q45.65-2.38 45.99-2.44L45.99-2.44L45.99-0.09Q45.10 0.20 44.13 0.20L44.13 0.20Q42.43 0.20 41.62-0.61Q40.81-1.41 40.81-3.04L40.81-3.04L40.81-8.28L39.46-8.28L39.46-10.57L40.81-10.57L40.81-13.19ZM52.25 0.20L52.25 0.20Q49.81 0.20 48.31-1.25Q46.81-2.71 46.81-5.03L46.81-5.03L46.81-5.30Q46.81-6.92 47.41-8.16Q48.01-9.40 49.16-10.08Q50.31-10.76 51.89-10.76L51.89-10.76Q54.12-10.76 55.41-9.38Q56.70-8.00 56.70-5.53L56.70-5.53L56.70-4.25L50.16-4.25Q50.33-3.36 50.93-2.85Q51.52-2.34 52.47-2.34L52.47-2.34Q54.03-2.34 54.91-3.44L54.91-3.44L56.42-1.66Q55.80-0.81 54.67-0.31Q53.54 0.20 52.25 0.20ZM51.88-8.22L51.88-8.22Q50.43-8.22 50.16-6.31L50.16-6.31L53.48-6.31L53.48-6.56Q53.50-7.35 53.08-7.79Q52.66-8.22 51.88-8.22ZM62.49-2.34L62.49-2.34Q63.18-2.34 63.56-2.72Q63.95-3.10 63.94-3.77L63.94-3.77L67.02-3.77Q67.02-2.03 65.78-0.92Q64.53 0.20 62.57 0.20L62.57 0.20Q60.26 0.20 58.94-1.25Q57.61-2.70 57.61-5.25L57.61-5.25L57.61-5.39Q57.61-6.99 58.20-8.22Q58.79-9.44 59.90-10.10Q61.02-10.76 62.54-10.76L62.54-10.76Q64.60-10.76 65.81-9.62Q67.02-8.48 67.02-6.52L67.02-6.52L63.94-6.52Q63.94-7.34 63.54-7.78Q63.13-8.22 62.46-8.22L62.46-8.22Q61.18-8.22 60.97-6.59L60.97-6.59Q60.90-6.07 60.90-5.17L60.90-5.17Q60.90-3.57 61.28-2.96Q61.66-2.34 62.49-2.34ZM71.63-15L71.63-9.43Q72.69-10.76 74.33-10.76L74.33-10.76Q76.07-10.76 76.96-9.73Q77.85-8.69 77.87-6.67L77.87-6.67L77.87 0L74.57 0L74.57-6.59Q74.57-7.43 74.23-7.83Q73.89-8.22 73.07-8.22L73.07-8.22Q72.05-8.22 71.63-7.58L71.63-7.58L71.63 0L68.34 0L68.34-15L71.63-15Z"></path></g></g></svg>